<svg xmlns="http://www.w3.org/2000/svg" viewBox="0 0 402.22 399.99"><g id="Layer_2" data-name="Layer 2"><g id="Layer_1-2" data-name="Layer 1"><g id="Layer_1-3" data-name="Layer 1"><path d="M129.39,14.87c-29.78,120.91-29.95,243.34-1.27,364.49a2.44,2.44,0,0,1-3.15,2.87c-3.32-1.12-6.12-2.13-8.89-3.22a27.23,27.23,0,0,1-15.79-16.86C86.38,320,78.42,279.4,73.6,234.53c-19-1.18-28.2-1.87-45.65-3.44C34.68,271.25,43.72,308,63.68,343a2.81,2.81,0,0,1-4.2,3.57L59,346.2a73,73,0,0,1-14.27-15.31c-61.08-87.64-59.48-181.95,3.95-267.8A79.56,79.56,0,0,1,60.53,50.26l.18-.16A2.83,2.83,0,0,1,65,53.68C45.71,86.75,36.27,121.75,28.88,159.9c17.34-2,26.47-2.84,45.38-4.31C80,109.17,87.72,64.83,105.78,21.4A2.61,2.61,0,0,1,107,20.08,171.43,171.43,0,0,1,126.21,12,2.43,2.43,0,0,1,129.39,14.87Z"/><path d="M263.17,235.55c-.54,41.94-6.59,86.64-22.57,125.21C229.75,386.93,217.05,400,201,400s-28.65-13.09-39.49-39.24c-16.21-39.09-21.3-82.69-22.69-125.2-.93-77.15,1.74-154,15.13-230.1a2.4,2.4,0,0,1,1.85-1.9A172.21,172.21,0,0,1,178.56,0a2.34,2.34,0,0,1,2.56,2.49C175.59,81,174.52,159.55,175,238.19c.36,30.65,3.12,52.39,7.48,66.6s12.69,22.67,18.58,21.15c24.33-6.3,24.74-58.39,26.47-87.75.43-78.64-.64-157.21-6.22-235.67A2.34,2.34,0,0,1,223.83,0a172.67,172.67,0,0,1,22.41,3.5,2.38,2.38,0,0,1,1.85,1.91C261.43,81.58,264.1,158.39,263.17,235.55Z"/><path d="M353.53,63.09c63.43,85.85,65,180.16,3.94,267.8A73.57,73.57,0,0,1,343.2,346.2l-.47.37a2.81,2.81,0,0,1-4.2-3.57c20-35,29-71.74,35.73-111.9-17.45,1.56-26.63,2.26-45.65,3.44-4.82,44.87-12.78,85.43-26.69,127.62A27.21,27.21,0,0,1,286.13,379c-2.78,1.09-5.57,2.1-8.89,3.22a2.44,2.44,0,0,1-3.15-2.87c28.67-121.15,28.51-243.58-1.27-364.49A2.43,2.43,0,0,1,276,12a169.87,169.87,0,0,1,19.17,8.09,2.61,2.61,0,0,1,1.26,1.32c18.06,43.43,25.77,87.77,31.52,134.19,18.92,1.48,28,2.35,45.38,4.31-7.39-38.15-16.82-73.15-36.11-106.22a2.83,2.83,0,0,1,4.28-3.58l.18.16A77.48,77.48,0,0,1,353.53,63.09Z"/></g></g></g></svg>